<svg width="140" height="78" fill="none" xmlns="http://www.w3.org/2000/svg"><path d="M0 18.024v7.36l20.571-2.265v-7.926L0 18.023zm6.571 7.784V51h7.572V25.1l-7.572.708zm16.715-11.039V51h8V13.778l-8 .99zm9.428-1.274v8.35l11.429-1.132v-8.775l-11.429 1.557zm0 14.577v8.492l7.572-.425v-8.774l-7.572.707zm0 14.578V51h11.429v-8.633l-11.429.283zM73.857 7.975V51h10.286V6.56L73.857 7.975zm12.286-1.698v9.907l15.143-1.557V4.296l-15.143 1.98zm0 17.408v10.049L96 33.166v-10.33l-9.857.849zm0 17.408V51h15.143V40.67l-15.143.424zm-39-29.579V51h9.143V10.381l-9.143 1.133zm10.714 30.428V51H71v-9.482l-13.143.424zM135.286 3.73C132 .756 127.143-.517 121.857.19v11.04c2.143-.142 3.857.707 4.572 2.122 1.285 2.406 0 6.086-3 9.483-4.572 5.236-16.715 15.851-16.715 15.851l17.572-.566C135 28.072 138.714 21.987 139.429 14.344c.285-3.963-1.143-7.926-4.143-10.615zm-30.715 36.797V51H140V39.536l-35.429.99z" fill="#202229"/><path d="M119.857.474c-10.286 2.123-15.286 9.483-14.714 21.371l11-.99c-.572-6.794 1.571-8.35 3.857-9.2l-.143-11.18z" fill="#202229"/><path d="M43.773 74v-1.36h1.329v-9.28h-1.329V62h10.094v1.36h-1.344v9.28h1.344V74h-2.96V63.422h-4.188v9.219h1.328V74h-4.274zm11.266-4c0-1.292.346-2.315 1.04-3.07.692-.76 1.577-1.14 2.655-1.14 1.078 0 1.966.377 2.664 1.132.698.755 1.047 1.776 1.047 3.062 0 1.297-.346 2.318-1.039 3.063-.687.74-1.578 1.11-2.672 1.11-1.083 0-1.971-.368-2.664-1.102-.687-.74-1.03-1.758-1.03-3.055zm1.617 0c0 .943.193 1.648.578 2.117.386.464.886.695 1.5.695.615 0 1.118-.234 1.508-.703.39-.474.586-1.182.586-2.125 0-.937-.198-1.645-.594-2.125-.395-.484-.895-.726-1.5-.726-.614 0-1.114.24-1.5.719-.385.479-.578 1.195-.578 2.148zm6.813 6.75h1.218v-9.547H63.47v-1.25h2.672v1.133h.117c.526-.865 1.357-1.297 2.492-1.297.943 0 1.706.375 2.29 1.125.588.745.882 1.742.882 2.992 0 1.323-.294 2.362-.883 3.117-.583.756-1.352 1.133-2.305 1.133-1.062 0-1.888-.424-2.476-1.273h-.117l.086 1.273v2.594H67.5V78h-4.031v-1.25zm2.758-6.305c0 .75.197 1.334.593 1.75.396.412.89.618 1.485.618.583 0 1.062-.24 1.437-.72.375-.478.563-1.202.563-2.171 0-.922-.19-1.617-.57-2.086-.376-.469-.852-.703-1.43-.703-.63 0-1.136.187-1.516.562-.375.375-.562.92-.562 1.633v1.117zm6.601-1.562v-2.93h7.281v2.93h-1.265v-1.649h-1.617v5.516h1.39V74h-4.32v-1.25h1.398v-5.516H74.11v1.649h-1.28zm8.242 3.07c0-.948.378-1.643 1.133-2.086.755-.443 1.925-.664 3.508-.664v-.375c0-1.14-.63-1.71-1.89-1.71-.803 0-1.555.241-2.258.726v-1.461c.645-.396 1.479-.594 2.5-.594 1.078 0 1.877.266 2.398.797.52.531.781 1.292.781 2.281v3.883h1.235V74h-2.688v-1.266h-.094c-.27.48-.578.836-.922 1.07-.338.235-.804.352-1.398.352-.724 0-1.29-.206-1.695-.617-.407-.411-.61-.94-.61-1.586zm1.618-.148c0 .312.099.57.296.773.204.203.498.305.883.305.526 0 .964-.195 1.313-.586.354-.396.53-.948.53-1.656v-.368c-1.103 0-1.884.12-2.343.36-.453.234-.68.625-.68 1.172zm6.5 2.242v-1.453c.124.031.247.047.367.047.541 0 .935-.446 1.18-1.336.244-.896.39-2.263.437-4.102h-1.219v-1.25h7.234v1.25h-1.234v5.547h1.234V74h-2.773v-6.719H92.5c-.005.584-.02 1.104-.047 1.563-.02.453-.057.924-.11 1.414-.051.49-.119.916-.202 1.281a6.55 6.55 0 01-.336 1.055c-.14.333-.305.607-.493.82a2.085 2.085 0 01-1.586.695 2.55 2.55 0 01-.476-.046l-.063-.016z" fill="#1F2229"/></svg>