<svg width="140" height="78" viewBox="0 0 140 78" fill="none" xmlns="http://www.w3.org/2000/svg">
<path d="M0 18.0238V25.3833L20.5714 23.1188V15.1932L0 18.0238Z" fill="#202229"/>
<path d="M6.57143 25.8079V51H14.1429V25.1003L6.57143 25.8079Z" fill="#202229"/>
<path d="M23.2857 14.7687V51H31.2857V13.778L23.2857 14.7687Z" fill="#202229"/>
<path d="M32.7143 13.4949V21.8451L44.1429 20.7128V11.938L32.7143 13.4949Z" fill="#202229"/>
<path d="M32.7143 28.0723V36.5641L40.2857 36.1395V27.3647L32.7143 28.0723Z" fill="#202229"/>
<path d="M32.7143 42.6498V51H44.1429V42.3667L32.7143 42.6498Z" fill="#202229"/>
<path d="M73.8571 7.97522V51H84.1429V6.55994L73.8571 7.97522Z" fill="#202229"/>
<path d="M86.1429 6.27693V16.1839L101.286 14.6271V4.29553L86.1429 6.27693Z" fill="#202229"/>
<path d="M86.1429 23.6849V33.7335L96 33.1673V22.8358L86.1429 23.6849Z" fill="#202229"/>
<path d="M86.1429 41.093V51.0001H101.286V40.6685L86.1429 41.093Z" fill="#202229"/>
<path d="M47.1429 11.5135V51H56.2857V10.3812L47.1429 11.5135Z" fill="#202229"/>
<path d="M57.8571 41.9422V51H71V41.5176L57.8571 41.9422Z" fill="#202229"/>
<path d="M135.286 3.72941C132 0.757306 127.143 -0.516453 121.857 0.191191V11.2304C124 11.0889 125.714 11.9381 126.429 13.3534C127.714 15.7593 126.429 19.4391 123.429 22.8358C118.857 28.0723 106.714 38.687 106.714 38.687L124.286 38.1209C135 28.0723 138.714 21.9866 139.429 14.3441C139.714 10.3813 138.286 6.41845 135.286 3.72941Z" fill="#202229"/>
<path d="M104.571 40.5268V51H140V39.5361L104.571 40.5268Z" fill="#202229"/>
<path d="M119.857 0.474243C109.571 2.59717 104.571 9.95667 105.143 21.8451L116.143 20.8544C115.571 14.061 117.714 12.5042 120 11.655L119.857 0.474243Z" fill="#202229"/>
<path d="M43.7734 74V72.6406H45.1016V63.3594H43.7734V62H53.8672V63.3594H52.5234V72.6406H53.8672V74H50.9062V63.4219H46.7188V72.6406H48.0469V74H43.7734ZM55.0391 70C55.0391 68.7083 55.3854 67.6849 56.0781 66.9297C56.7708 66.1693 57.6562 65.7891 58.7344 65.7891C59.8125 65.7891 60.7005 66.1667 61.3984 66.9219C62.0964 67.6771 62.4453 68.6979 62.4453 69.9844C62.4453 71.2812 62.099 72.3021 61.4062 73.0469C60.7188 73.7865 59.8281 74.1562 58.7344 74.1562C57.651 74.1562 56.763 73.7891 56.0703 73.0547C55.3828 72.3151 55.0391 71.2969 55.0391 70ZM56.6562 70C56.6562 70.9427 56.849 71.6484 57.2344 72.1172C57.6198 72.5807 58.1198 72.8125 58.7344 72.8125C59.349 72.8125 59.8516 72.5781 60.2422 72.1094C60.6328 71.6354 60.8281 70.9271 60.8281 69.9844C60.8281 69.0469 60.6302 68.3385 60.2344 67.8594C59.8385 67.375 59.3385 67.1328 58.7344 67.1328C58.1198 67.1328 57.6198 67.3724 57.2344 67.8516C56.849 68.3307 56.6562 69.0469 56.6562 70ZM63.4688 76.75H64.6875V67.2031H63.4688V65.9531H66.1406V67.0859H66.2578C66.7839 66.2214 67.6146 65.7891 68.75 65.7891C69.6927 65.7891 70.4557 66.1641 71.0391 66.9141C71.6276 67.6589 71.9219 68.6562 71.9219 69.9062C71.9219 71.2292 71.6276 72.2682 71.0391 73.0234C70.4557 73.7786 69.6875 74.1562 68.7344 74.1562C67.6719 74.1562 66.8464 73.7318 66.2578 72.8828H66.1406L66.2266 74.1562V76.75H67.5V78H63.4688V76.75ZM66.2266 70.4453C66.2266 71.1953 66.4245 71.7786 66.8203 72.1953C67.2161 72.6068 67.7109 72.8125 68.3047 72.8125C68.888 72.8125 69.3672 72.5729 69.7422 72.0938C70.1172 71.6146 70.3047 70.8906 70.3047 69.9219C70.3047 69 70.1146 68.3047 69.7344 67.8359C69.3594 67.3672 68.8828 67.1328 68.3047 67.1328C67.6745 67.1328 67.1693 67.3203 66.7891 67.6953C66.4141 68.0703 66.2266 68.6146 66.2266 69.3281V70.4453ZM72.8281 68.8828V65.9531H80.1094V68.8828H78.8438V67.2344H77.2266V72.75H78.6172V74H74.2969V72.75H75.6953V67.2344H74.1094V68.8828H72.8281ZM81.0703 71.9531C81.0703 71.0052 81.4479 70.3099 82.2031 69.8672C82.9583 69.4245 84.1276 69.2031 85.7109 69.2031V68.8281C85.7109 67.6875 85.0807 67.1172 83.8203 67.1172C83.0182 67.1172 82.2656 67.3594 81.5625 67.8438V66.3828C82.2083 65.987 83.0417 65.7891 84.0625 65.7891C85.1406 65.7891 85.9401 66.0547 86.4609 66.5859C86.9818 67.1172 87.2422 67.8776 87.2422 68.8672V72.75H88.4766V74H85.7891V72.7344H85.6953C85.4245 73.2135 85.1172 73.5703 84.7734 73.8047C84.4349 74.0391 83.9688 74.1562 83.375 74.1562C82.651 74.1562 82.0859 73.9505 81.6797 73.5391C81.2734 73.1276 81.0703 72.599 81.0703 71.9531ZM82.6875 71.8047C82.6875 72.1172 82.7865 72.375 82.9844 72.5781C83.1875 72.7812 83.4818 72.8828 83.8672 72.8828C84.3932 72.8828 84.8307 72.6875 85.1797 72.2969C85.5339 71.901 85.7109 71.349 85.7109 70.6406V70.2734C84.6068 70.2734 83.8255 70.3932 83.3672 70.6328C82.9141 70.8672 82.6875 71.2578 82.6875 71.8047ZM89.1875 74.0469V72.5938C89.3125 72.625 89.4349 72.6406 89.5547 72.6406C90.0964 72.6406 90.4896 72.1953 90.7344 71.3047C90.9792 70.4089 91.125 69.0417 91.1719 67.2031H89.9531V65.9531H97.1875V67.2031H95.9531V72.75H97.1875V74H94.4141V67.2812H92.5C92.4948 67.8646 92.4792 68.3854 92.4531 68.8438C92.4323 69.2969 92.3958 69.7682 92.3438 70.2578C92.2917 70.7474 92.224 71.1745 92.1406 71.5391C92.0573 71.9036 91.9453 72.2552 91.8047 72.5938C91.6641 72.9271 91.5 73.2005 91.3125 73.4141C91.125 73.6276 90.8958 73.7969 90.625 73.9219C90.3594 74.0469 90.0599 74.1094 89.7266 74.1094C89.6328 74.1094 89.5391 74.1042 89.4453 74.0938C89.3568 74.0833 89.2917 74.0729 89.25 74.0625L89.1875 74.0469Z" fill="#1F2229"/>
</svg>
